# xmcd
#
# Track frame offsets: 
#        150
#        30632
#        53072
#        70045
#        98700
#        117825
#        142927
#
# Disc length: 2179 seconds
#
# Revision: 1
# Processed by: cddbd v1.4PL0 Copyright (c) Steve Scherf et al.
# Submitted via: ExactAudioCopy v0.90b4
#
DISCID=53088107
DTITLE=Haiti Twoubadou - Volume I
DYEAR=1900
DGENRE=Compa
TTITLE0=Ki Lang Ou Pale - J Jean and G Benoit
TTITLE1=Pa Manyen Fanm Nan - C Evora and M Martelly
TTITLE2=Anne - Brothers Posse
TTITLE3=Our Love is Forever - G Delva and N Prudhomme
TTITLE4=Lanmou Doudou - Jacques Sauveur Jean
TTITLE5=A la Derive - F Rouzier and E Charles
TTITLE6=Bonus Track
EXTD=
EXTT0=
EXTT1=
EXTT2=
EXTT3=
EXTT4=
EXTT5=
EXTT6=
PLAYORDER=
